<svg width="41" height="40" viewBox="0 0 41 40" fill="none" xmlns="http://www.w3.org/2000/svg">
<path d="M12.9317 20H9.62891V23.6125H12.9317V20Z" fill="#6C410E"/>
<path d="M22.3184 11.1077H19.0156V14.7202H22.3184V11.1077Z" fill="#6C410E"/>
<path d="M16.9922 11.1077H13.6895V14.7202H16.9922V11.1077Z" fill="#6C410E"/>
<path d="M31.4981 20H28.1953V23.6125H31.4981V20Z" fill="#6C410E"/>
<path d="M27.6446 11.1077H24.3418V14.7202H27.6446V11.1077Z" fill="#6C410E"/>
<path d="M20.5 0C9.45417 0 0.5 8.95417 0.5 20C0.5 31.0458 9.45417 40 20.5 40C31.5458 40 40.5 31.0458 40.5 20C40.5 8.95417 31.5458 0 20.5 0ZM33.7111 32.6604H23.8715V22.8563H17.4618V32.6604H7.28889V17.3597H11.0042V7.33958H29.9951V17.3597H33.7104V32.6604H33.7111Z" fill="#6C410E"/>
</svg>
