<svg width="12" height="12" viewBox="0 0 12 12" fill="none" xmlns="http://www.w3.org/2000/svg">
<rect x="0.5" y="0.5" width="11" height="11" rx="2.5" stroke="black"/>
<path fill-rule="evenodd" clip-rule="evenodd" d="M4.44291 3.05582C4.06055 2.67345 3.44062 2.67345 3.05826 3.05581C2.67589 3.43818 2.67589 4.05811 3.05826 4.44047L3.89233 5.27454C4.28285 5.66507 4.28285 6.29823 3.89233 6.68876L3.06032 7.52077C2.67795 7.90313 2.67795 8.52306 3.06032 8.90542C3.44268 9.28779 4.06261 9.28779 4.44498 8.90542L5.27698 8.07341C5.66751 7.68289 6.30067 7.68289 6.6912 8.07342L7.52248 8.9047C7.90484 9.28706 8.52478 9.28706 8.90714 8.9047C9.2895 8.52233 9.2895 7.9024 8.90714 7.52004L8.07586 6.68876C7.68533 6.29823 7.68533 5.66507 8.07586 5.27454L8.9092 4.4412C9.29156 4.05884 9.29156 3.43891 8.9092 3.05654C8.52684 2.67418 7.9069 2.67418 7.52454 3.05654L6.6912 3.88989C6.30067 4.28041 5.66751 4.28041 5.27698 3.88989L4.44291 3.05582Z" fill="black"/>
</svg>
