<svg width="50" height="50" viewBox="0 0 50 50" fill="none" xmlns="http://www.w3.org/2000/svg">
<g clip-path="url(#clip0_698_3422)">
<path d="M25.6468 54.6606C-1.00917 54.6606 -13 37.2239 -13 24.8415C-13 14.0952 -9.50688 9.39727 -8.65367 8.41015C-8.80275 5.68644 -9.52752 -9.70068 -7.09633 -12.1228C-4.58486 -14.6248 4.63532 -10.946 7.94037 -8.99234C9.17202 -9.93147 13.7913 -12.8334 23.7454 -12.8334C33.6995 -12.8334 39.2729 -9.47904 40.6009 -8.51934C42.7248 -9.72125 51.9151 -14.6842 55.1078 -12.413C55.6651 -12.0177 57.3578 -10.8112 57.2408 -1.03143C57.1904 3.06327 56.8394 6.99346 56.7454 7.98057C57.6514 9.12078 62 15.0526 62 23.9252C62 33.5519 52.8463 54.6584 25.6468 54.6584V54.6606ZM-4.3578 -11.8509C-5.23165 -11.8509 -5.91055 -11.6909 -6.2867 -11.3162C-7.90826 -9.70068 -7.88991 1.74712 -7.49541 8.58381L-7.48165 8.83973L-7.66284 9.02024C-7.70413 9.06137 -11.8532 13.3891 -11.8532 24.8392C-11.8532 36.2893 -0.21789 53.5159 25.6468 53.5159C51.5115 53.5159 60.8532 33.1954 60.8532 23.9252C60.8532 14.655 55.7661 8.58838 55.7156 8.52897L55.5573 8.34389L55.5826 8.10168C56.2798 1.33811 56.5849 -9.95889 54.4427 -11.483C52.0573 -13.1807 43.8188 -9.06774 40.844 -7.34029L40.4954 -7.13692L40.1858 -7.39741C40.1353 -7.43854 34.8991 -11.6909 23.7454 -11.6909C12.5917 -11.6909 8.41972 -7.91382 8.37844 -7.87498L8.05275 -7.56879L7.67431 -7.811C4.90826 -9.58186 -1.08257 -11.8509 -4.36009 -11.8509H-4.3578Z" fill="black"/>
<path d="M12.115 26.6694C14.1418 26.6694 15.7848 25.0326 15.7848 23.0134C15.7848 20.9943 14.1418 19.3574 12.115 19.3574C10.0883 19.3574 8.44531 20.9943 8.44531 23.0134C8.44531 25.0326 10.0883 26.6694 12.115 26.6694Z" fill="black"/>
<path d="M35.8533 26.7841C37.8801 26.7841 39.523 25.1473 39.523 23.1282C39.523 21.109 37.8801 19.4722 35.8533 19.4722C33.8266 19.4722 32.1836 21.109 32.1836 23.1282C32.1836 25.1473 33.8266 26.7841 35.8533 26.7841Z" fill="black"/>
<path d="M24.6139 29.0691C25.8806 29.0691 26.9075 28.4553 26.9075 27.6981C26.9075 26.941 25.8806 26.3271 24.6139 26.3271C23.3472 26.3271 22.3203 26.941 22.3203 27.6981C22.3203 28.4553 23.3472 29.0691 24.6139 29.0691Z" fill="black"/>
<path d="M20.2577 33.5245C18.0214 33.5245 17.2554 31.0842 17.1636 29.7954C17.1407 29.4801 17.3792 29.2082 17.6957 29.1853C18.0123 29.1602 18.2852 29.4001 18.3081 29.7132C18.3104 29.7497 18.5329 32.382 20.26 32.382C22.1201 32.382 24.0444 31.1436 24.0444 29.0688C24.0444 28.7535 24.3012 28.4976 24.6178 28.4976C24.9343 28.4976 25.1912 28.7535 25.1912 29.0688C25.1912 31.5663 23.026 33.5245 20.26 33.5245H20.2577Z" fill="black"/>
<path d="M28.9722 33.525C26.2062 33.525 24.041 31.5668 24.041 29.0693C24.041 28.754 24.2979 28.498 24.6144 28.498C24.9309 28.498 25.1878 28.754 25.1878 29.0693C25.1878 31.1441 27.1121 32.3825 28.9722 32.3825C30.7016 32.3825 30.9217 29.7388 30.924 29.7137C30.947 29.3983 31.2222 29.1675 31.5387 29.1858C31.8552 29.2087 32.0915 29.4806 32.0685 29.7959C31.9768 31.0869 31.2107 33.525 28.9745 33.525H28.9722Z" fill="black"/>
<path d="M1.88772 -3.71366C-0.137513 -4.77161 -2.16274 -5.83185 -4.11228 -7.02233C-4.6054 -7.32395 -5.08247 -6.91493 -5.14669 -6.43051C-5.62146 -2.89563 -5.66962 0.684947 -5.29118 4.23125C-5.22696 4.82992 -4.58935 5.12468 -4.11687 4.71567C-1.6054 2.55407 0.910651 0.351337 2.76616 -2.42036C2.97258 -2.72883 2.82579 -3.17897 2.51845 -3.3572C2.18129 -3.55371 1.7845 -3.42118 1.57808 -3.11042C-0.206321 -0.44384 -2.67421 1.66978 -5.08935 3.74683L-3.91504 4.23125C-4.29348 0.684947 -4.24531 -2.89563 -3.77054 -6.43051L-4.80495 -5.8387C-2.8554 -4.64822 -0.830175 -3.58799 1.19505 -2.53004C1.52304 -2.35866 1.94276 -2.44549 2.13542 -2.77681C2.31661 -3.08529 2.21799 -3.54229 1.88772 -3.71366Z" fill="black"/>
<path d="M46.8038 -2.53052C48.829 -3.58847 50.8543 -4.64871 52.8038 -5.83919L51.7694 -6.431C52.2442 -2.89612 52.2923 0.684459 51.9139 4.23076L53.0882 3.74635C50.6731 1.667 48.2052 -0.446613 46.4208 -3.11091C46.2143 -3.41939 45.813 -3.55191 45.4804 -3.35769C45.1731 -3.17946 45.0263 -2.72932 45.2327 -2.42084C47.0882 0.350849 49.6043 2.55358 52.1157 4.71518C52.5928 5.1242 53.2258 4.82715 53.29 4.23076C53.6685 0.684459 53.6203 -2.89612 53.1455 -6.431C53.0813 -6.91542 52.602 -7.32443 52.1111 -7.02282C50.1616 -5.83234 48.1364 -4.7721 46.1111 -3.71415C45.7832 -3.54277 45.6822 -3.08578 45.8634 -2.7773C46.0584 -2.44598 46.4735 -2.35915 46.8038 -2.53052Z" fill="black"/>
<path d="M-4.28485 70.0001H-5.43164C-5.43164 56 2.51561 48.6377 2.85276 48.3315L3.62341 49.177C3.54313 49.2501 -4.28714 56.5278 -4.28714 70.0001H-4.28485Z" fill="black"/>
<path d="M54.0417 70.0001H52.8949C52.8949 56.5278 45.0647 49.2478 44.9844 49.177L45.7573 48.3315C46.0968 48.6377 54.0417 56 54.0417 70.0001Z" fill="black"/>
</g>
<defs>
<clipPath id="clip0_698_3422">
<rect width="50" height="50" fill="white"/>
</clipPath>
</defs>
</svg>
