<svg width="41" height="40" viewBox="0 0 41 40" fill="none" xmlns="http://www.w3.org/2000/svg">
<path d="M24.5774 17.0415L22.3538 13.0283C21.7857 13.2748 21.1586 13.4123 20.4996 13.4123C19.9024 13.4123 19.3323 13.2992 18.8073 13.0943L16.8496 16.9623C17.8253 17.62 18.467 18.7353 18.467 20.0005C18.467 21.2658 17.8517 22.3325 16.9107 22.995L20.1468 29.0776C20.2843 29.0443 20.4274 29.0262 20.5753 29.0262C20.7406 29.0262 20.9003 29.0485 21.0524 29.0901L24.5461 22.9373C23.651 22.27 23.0718 21.2033 23.0718 20.0012C23.0718 18.7992 23.6649 17.7082 24.5774 17.0429V17.0415Z" fill="#6C410E"/>
<path d="M20.5 0C9.45417 0 0.5 8.95417 0.5 20C0.5 31.0458 9.45417 40 20.5 40C31.5458 40 40.5 31.0458 40.5 20C40.5 8.95417 31.5458 0 20.5 0ZM32.2111 32.6604C31.2076 32.6604 30.3938 31.8465 30.3938 30.8431C30.3938 30.2979 30.634 29.809 31.0146 29.4757L27.9687 23.4465C27.5826 23.5847 27.1667 23.6611 26.7333 23.6611C26.2368 23.6611 25.7632 23.5618 25.3319 23.3826L21.8382 29.5361C22.1806 29.8667 22.3938 30.3299 22.3938 30.8438C22.3938 31.8472 21.5799 32.6611 20.5764 32.6611C19.5729 32.6611 18.759 31.8472 18.759 30.8438C18.759 30.3125 18.9875 29.834 19.3514 29.5021L16.1153 23.4201C15.709 23.5757 15.2681 23.6618 14.8069 23.6618C14.3458 23.6618 13.8882 23.5722 13.475 23.4111L10.175 29.5111C10.5333 29.8431 10.7576 30.3174 10.7576 30.8444C10.7576 31.8479 9.94375 32.6618 8.94028 32.6618C7.93681 32.6618 7.12292 31.8479 7.12292 30.8444C7.12292 29.841 7.93681 29.0271 8.94028 29.0271C9.09236 29.0271 9.23958 29.0458 9.38125 29.0813L12.6813 22.9813C11.7521 22.3174 11.1458 21.2306 11.1458 20.0014C11.1458 17.9792 12.7847 16.3403 14.8069 16.3403C15.2417 16.3403 15.6583 16.4167 16.0451 16.5556L18.0028 12.6868C16.7021 11.8597 15.8389 10.4069 15.8389 8.75208C15.8389 6.17778 17.9257 4.09097 20.5 4.09097C23.0743 4.09097 25.1611 6.17778 25.1611 8.75208C25.1611 10.3451 24.3618 11.7507 23.1431 12.591L25.3667 16.6049C25.7889 16.4347 26.25 16.3403 26.7326 16.3403C28.7549 16.3403 30.3938 17.9792 30.3938 20.0014C30.3938 21.2674 29.7507 22.3833 28.7743 23.041L31.8201 29.0701C31.9458 29.0424 32.0771 29.0278 32.2111 29.0278C33.2146 29.0278 34.0285 29.8417 34.0285 30.8451C34.0285 31.8486 33.2146 32.6625 32.2111 32.6625V32.6604Z" fill="#6C410E"/>
</svg>
