<svg width="40" height="40" viewBox="0 0 40 40" fill="none" xmlns="http://www.w3.org/2000/svg">
<g clip-path="url(#clip0_923_5456)">
<path d="M20 0C8.956 0 0 8.956 0 20C0 31.044 8.956 40 20 40C31.044 40 40 31.044 40 20C40 8.956 31.044 0 20 0ZM24.464 29.792H10.544V11.608C10.544 10.836 11.172 10.208 11.944 10.208C12.716 10.208 13.344 10.836 13.344 11.608V26.992H24.464C25.236 26.992 25.864 27.62 25.864 28.392C25.864 29.164 25.236 29.792 24.464 29.792ZM31.052 19.056C31.052 19.112 31.044 19.172 31.036 19.228C31.032 19.256 31.028 19.28 31.024 19.304C31.008 19.368 30.992 19.432 30.968 19.496C30.964 19.512 30.96 19.528 30.952 19.54C30.92 19.616 30.884 19.688 30.84 19.756C30.828 19.776 30.812 19.796 30.796 19.816C30.76 19.868 30.72 19.916 30.676 19.964C30.664 19.976 30.66 19.988 30.648 20L26.12 24.528C25.848 24.8 25.488 24.936 25.128 24.936C24.768 24.936 24.412 24.8 24.136 24.528C23.588 23.98 23.588 23.096 24.136 22.548L26.276 20.408H17.932C17.16 20.408 16.532 19.78 16.532 19.008C16.532 18.236 17.16 17.608 17.932 17.608H26.276L24.072 15.404C23.524 14.856 23.524 13.972 24.072 13.424C24.62 12.876 25.504 12.876 26.052 13.424L30.648 18.02C30.708 18.08 30.76 18.148 30.808 18.216C30.824 18.236 30.836 18.26 30.848 18.28C30.88 18.332 30.908 18.384 30.932 18.436C30.944 18.46 30.952 18.484 30.964 18.508C30.992 18.584 31.016 18.66 31.032 18.736C31.032 18.744 31.032 18.752 31.032 18.76C31.044 18.832 31.052 18.904 31.052 18.98C31.052 19.004 31.052 19.028 31.052 19.056Z" fill="#6C410E"/>
</g>
<defs>
<clipPath id="clip0_923_5456">
<rect width="40" height="40" fill="white"/>
</clipPath>
</defs>
</svg>
