<svg width="56" height="56" viewBox="0 0 56 56" fill="none" xmlns="http://www.w3.org/2000/svg">
<path d="M28 0C12.5384 0 0 12.5384 0 28C0 43.4616 12.5384 56 28 56C43.4616 56 56 43.4616 56 28C56 12.5384 43.4616 0 28 0ZM34.2496 41.7088H14.7616V16.2512C14.7616 15.1704 15.6408 14.2912 16.7216 14.2912C17.8024 14.2912 18.6816 15.1704 18.6816 16.2512V37.7888H34.2496C35.3304 37.7888 36.2096 38.668 36.2096 39.7488C36.2096 40.8296 35.3304 41.7088 34.2496 41.7088ZM41.5184 28.4816H29.8368L32.9224 31.5672C33.6896 32.3344 33.6896 33.572 32.9224 34.3392C32.1552 35.1064 30.9176 35.1064 30.1504 34.3392L23.716 27.9048C23.632 27.8208 23.5592 27.7256 23.492 27.6304C23.4696 27.6024 23.4528 27.5688 23.436 27.5408C23.3912 27.468 23.352 27.3952 23.3184 27.3224C23.3016 27.2888 23.2904 27.2552 23.2736 27.2216C23.2344 27.1152 23.2008 27.0088 23.1784 26.9024C23.1784 26.8912 23.1784 26.88 23.1784 26.8688C23.1616 26.768 23.1504 26.6672 23.1504 26.5608C23.1504 26.5272 23.1504 26.4936 23.1504 26.4544C23.1504 26.376 23.1616 26.292 23.1728 26.2136C23.1784 26.1744 23.184 26.1408 23.1896 26.1072C23.212 26.0176 23.2344 25.928 23.268 25.8384C23.2736 25.816 23.2792 25.7936 23.2904 25.7768C23.3352 25.6704 23.3856 25.5696 23.4472 25.4744C23.464 25.4464 23.4864 25.4184 23.5088 25.3904C23.5592 25.3176 23.6152 25.2504 23.6768 25.1832C23.6936 25.1664 23.6992 25.1496 23.716 25.1328L30.0552 18.7936C30.436 18.4128 30.94 18.2224 31.444 18.2224C31.948 18.2224 32.4464 18.4128 32.8328 18.7936C33.6 19.5608 33.6 20.7984 32.8328 21.5656L29.8368 24.5616H41.5184C42.5992 24.5616 43.4784 25.4408 43.4784 26.5216C43.4784 27.6024 42.5992 28.4816 41.5184 28.4816Z" fill="#AB5C22"/>
</svg>
