<svg width="41" height="40" viewBox="0 0 41 40" fill="none" xmlns="http://www.w3.org/2000/svg">
<path d="M14.1589 8.10912C13.2576 8.10773 12.5576 8.10565 12.0791 8.10287C12.0666 8.10287 12.0548 8.10287 12.043 8.10287V32.1237H28.7548V8.09106C27.2673 8.09454 23.8332 8.10218 20.4277 8.10634C17.7853 8.10981 15.6763 8.11051 14.1596 8.10843L14.1589 8.10912ZM13.2777 14.064H19.627V15.4529H13.2777V14.064ZM13.2777 16.3119H22.9784V17.7008H13.2777V16.3119ZM13.2777 20.5848H18.4499V21.9737H13.2777V20.5848ZM13.2777 22.7855H21.5298V24.1744H13.2777V22.7855ZM13.2777 27.1869H19.627V28.5758H13.2777V27.1869ZM22.9784 30.7765H13.2777V29.3876H22.9784V30.7765ZM23.4798 26.3751H13.2777V24.9862H23.4798V26.3751ZM24.6888 13.205H13.2777V11.8161H24.6888V13.205ZM21.9978 10.957H13.2777V9.56815H21.9978V10.957Z" fill="#6C410E"/>
<path d="M20.5 0C9.45417 0 0.5 8.95417 0.5 20C0.5 31.0458 9.45417 40 20.5 40C31.5458 40 40.5 31.0458 40.5 20C40.5 8.95417 31.5458 0 20.5 0ZM30.2826 32.8868C30.2826 33.309 29.941 33.6507 29.5188 33.6507H11.2799C10.8576 33.6507 10.516 33.309 10.516 32.8868V7.32569C10.516 7.04861 10.666 6.79306 10.9076 6.65833C11.0486 6.57986 11.2076 6.54931 11.3625 6.56597C12.0528 6.59444 22.559 6.57917 29.5167 6.56181H29.5188C29.7208 6.56181 29.9153 6.64167 30.0583 6.78472C30.2021 6.92778 30.2826 7.12292 30.2826 7.32569V32.8868Z" fill="#6C410E"/>
</svg>
